<mxfile host="app.diagrams.net" modified="2022-06-23T17:14:29.244Z" agent="5.0 (Windows NT 10.0; Win64; x64) AppleWebKit/537.36 (KHTML, like Gecko) Chrome/102.0.5005.124 Safari/537.36 Edg/102.0.1245.44" etag="MRpaiDh_9vC40ZCGQm2K" version="18.1.3" type="github">
  <diagram id="4SBbG3i_G1eImxlA6coF" name="Page-1">
    <mxGraphModel dx="1038" dy="579" grid="1" gridSize="10" guides="1" tooltips="1" connect="1" arrows="1" fold="1" page="1" pageScale="1" pageWidth="850" pageHeight="1100" math="0" shadow="0">
      <root>
        <mxCell id="0" />
        <mxCell id="1" parent="0" />
        <mxCell id="nKktrMvdwARESOhwwD5u-5" value="" style="rounded=0;whiteSpace=wrap;html=1;" vertex="1" parent="1">
          <mxGeometry x="115" y="290" width="610" height="190" as="geometry" />
        </mxCell>
        <mxCell id="nKktrMvdwARESOhwwD5u-12" value="" style="rounded=0;whiteSpace=wrap;html=1;" vertex="1" parent="1">
          <mxGeometry x="125" y="335" width="590" height="105" as="geometry" />
        </mxCell>
        <mxCell id="nKktrMvdwARESOhwwD5u-3" value="" style="rounded=0;whiteSpace=wrap;html=1;" vertex="1" parent="1">
          <mxGeometry x="210" y="520" width="410" height="170" as="geometry" />
        </mxCell>
        <mxCell id="nKktrMvdwARESOhwwD5u-1" value="" style="shape=datastore;whiteSpace=wrap;html=1;" vertex="1" parent="1">
          <mxGeometry x="385" y="550" width="60" height="60" as="geometry" />
        </mxCell>
        <mxCell id="nKktrMvdwARESOhwwD5u-2" value="Database&lt;br&gt;(Relational, Hierarchy, Object, dll)" style="text;html=1;align=center;verticalAlign=middle;resizable=0;points=[];autosize=1;strokeColor=none;fillColor=none;" vertex="1" parent="1">
          <mxGeometry x="320" y="625" width="190" height="30" as="geometry" />
        </mxCell>
        <mxCell id="nKktrMvdwARESOhwwD5u-4" value="Storage" style="text;html=1;align=center;verticalAlign=middle;resizable=0;points=[];autosize=1;strokeColor=none;fillColor=none;" vertex="1" parent="1">
          <mxGeometry x="220" y="530" width="60" height="20" as="geometry" />
        </mxCell>
        <mxCell id="nKktrMvdwARESOhwwD5u-6" value="DBMS" style="text;html=1;align=center;verticalAlign=middle;resizable=0;points=[];autosize=1;strokeColor=none;fillColor=none;" vertex="1" parent="1">
          <mxGeometry x="125" y="300" width="50" height="20" as="geometry" />
        </mxCell>
        <mxCell id="nKktrMvdwARESOhwwD5u-16" style="edgeStyle=orthogonalEdgeStyle;rounded=0;orthogonalLoop=1;jettySize=auto;html=1;exitX=0.5;exitY=1;exitDx=0;exitDy=0;entryX=0.5;entryY=0;entryDx=0;entryDy=0;strokeWidth=2;" edge="1" parent="1" source="nKktrMvdwARESOhwwD5u-7" target="nKktrMvdwARESOhwwD5u-1">
          <mxGeometry relative="1" as="geometry">
            <Array as="points">
              <mxPoint x="200" y="500" />
              <mxPoint x="415" y="500" />
            </Array>
          </mxGeometry>
        </mxCell>
        <mxCell id="nKktrMvdwARESOhwwD5u-7" value="Define" style="rounded=0;whiteSpace=wrap;html=1;" vertex="1" parent="1">
          <mxGeometry x="145" y="370" width="100" height="40" as="geometry" />
        </mxCell>
        <mxCell id="nKktrMvdwARESOhwwD5u-17" style="edgeStyle=orthogonalEdgeStyle;rounded=0;orthogonalLoop=1;jettySize=auto;html=1;exitX=0.5;exitY=1;exitDx=0;exitDy=0;entryX=0.5;entryY=0;entryDx=0;entryDy=0;strokeWidth=2;" edge="1" parent="1" source="nKktrMvdwARESOhwwD5u-8" target="nKktrMvdwARESOhwwD5u-1">
          <mxGeometry relative="1" as="geometry">
            <Array as="points">
              <mxPoint x="310" y="500" />
              <mxPoint x="415" y="500" />
            </Array>
          </mxGeometry>
        </mxCell>
        <mxCell id="nKktrMvdwARESOhwwD5u-8" value="Insert" style="rounded=0;whiteSpace=wrap;html=1;" vertex="1" parent="1">
          <mxGeometry x="255" y="370" width="100" height="40" as="geometry" />
        </mxCell>
        <mxCell id="nKktrMvdwARESOhwwD5u-20" style="edgeStyle=orthogonalEdgeStyle;rounded=0;orthogonalLoop=1;jettySize=auto;html=1;exitX=0.5;exitY=1;exitDx=0;exitDy=0;entryX=0.5;entryY=0;entryDx=0;entryDy=0;strokeWidth=2;" edge="1" parent="1" source="nKktrMvdwARESOhwwD5u-9" target="nKktrMvdwARESOhwwD5u-1">
          <mxGeometry relative="1" as="geometry" />
        </mxCell>
        <mxCell id="nKktrMvdwARESOhwwD5u-9" value="Query" style="rounded=0;whiteSpace=wrap;html=1;" vertex="1" parent="1">
          <mxGeometry x="365" y="370" width="100" height="40" as="geometry" />
        </mxCell>
        <mxCell id="nKktrMvdwARESOhwwD5u-21" style="edgeStyle=orthogonalEdgeStyle;rounded=0;orthogonalLoop=1;jettySize=auto;html=1;exitX=0.5;exitY=1;exitDx=0;exitDy=0;entryX=0.5;entryY=0;entryDx=0;entryDy=0;strokeWidth=2;" edge="1" parent="1" source="nKktrMvdwARESOhwwD5u-10" target="nKktrMvdwARESOhwwD5u-1">
          <mxGeometry relative="1" as="geometry">
            <Array as="points">
              <mxPoint x="525" y="500" />
              <mxPoint x="415" y="500" />
            </Array>
          </mxGeometry>
        </mxCell>
        <mxCell id="nKktrMvdwARESOhwwD5u-10" value="Update" style="rounded=0;whiteSpace=wrap;html=1;" vertex="1" parent="1">
          <mxGeometry x="475" y="370" width="100" height="40" as="geometry" />
        </mxCell>
        <mxCell id="nKktrMvdwARESOhwwD5u-22" style="edgeStyle=orthogonalEdgeStyle;rounded=0;orthogonalLoop=1;jettySize=auto;html=1;exitX=0.5;exitY=1;exitDx=0;exitDy=0;entryX=0.5;entryY=0;entryDx=0;entryDy=0;strokeWidth=2;" edge="1" parent="1" source="nKktrMvdwARESOhwwD5u-11" target="nKktrMvdwARESOhwwD5u-1">
          <mxGeometry relative="1" as="geometry">
            <Array as="points">
              <mxPoint x="635" y="500" />
              <mxPoint x="415" y="500" />
            </Array>
          </mxGeometry>
        </mxCell>
        <mxCell id="nKktrMvdwARESOhwwD5u-11" value="Delete" style="rounded=0;whiteSpace=wrap;html=1;" vertex="1" parent="1">
          <mxGeometry x="585" y="370" width="100" height="40" as="geometry" />
        </mxCell>
        <mxCell id="nKktrMvdwARESOhwwD5u-13" value="DBMS APP" style="text;html=1;align=center;verticalAlign=middle;resizable=0;points=[];autosize=1;strokeColor=none;fillColor=none;" vertex="1" parent="1">
          <mxGeometry x="135" y="340" width="80" height="20" as="geometry" />
        </mxCell>
        <mxCell id="nKktrMvdwARESOhwwD5u-27" style="edgeStyle=orthogonalEdgeStyle;rounded=0;orthogonalLoop=1;jettySize=auto;html=1;entryX=0.5;entryY=0;entryDx=0;entryDy=0;strokeWidth=2;" edge="1" parent="1" source="nKktrMvdwARESOhwwD5u-23" target="nKktrMvdwARESOhwwD5u-5">
          <mxGeometry relative="1" as="geometry">
            <Array as="points">
              <mxPoint x="318" y="240" />
              <mxPoint x="420" y="240" />
            </Array>
          </mxGeometry>
        </mxCell>
        <mxCell id="nKktrMvdwARESOhwwD5u-23" value="" style="sketch=0;outlineConnect=0;fontColor=#232F3E;gradientColor=none;fillColor=#232F3D;strokeColor=none;dashed=0;verticalLabelPosition=bottom;verticalAlign=top;align=center;html=1;fontSize=12;fontStyle=0;aspect=fixed;pointerEvents=1;shape=mxgraph.aws4.user;" vertex="1" parent="1">
          <mxGeometry x="278.5" y="110" width="78" height="78" as="geometry" />
        </mxCell>
        <mxCell id="nKktrMvdwARESOhwwD5u-24" value="User (Manual Query/Manage)" style="text;html=1;align=center;verticalAlign=middle;resizable=0;points=[];autosize=1;strokeColor=none;fillColor=none;" vertex="1" parent="1">
          <mxGeometry x="232.5" y="90" width="170" height="20" as="geometry" />
        </mxCell>
        <mxCell id="nKktrMvdwARESOhwwD5u-29" style="edgeStyle=orthogonalEdgeStyle;rounded=0;orthogonalLoop=1;jettySize=auto;html=1;entryX=0.5;entryY=0;entryDx=0;entryDy=0;strokeWidth=2;" edge="1" parent="1" source="nKktrMvdwARESOhwwD5u-25" target="nKktrMvdwARESOhwwD5u-5">
          <mxGeometry relative="1" as="geometry">
            <Array as="points">
              <mxPoint x="535" y="240" />
              <mxPoint x="420" y="240" />
            </Array>
          </mxGeometry>
        </mxCell>
        <mxCell id="nKktrMvdwARESOhwwD5u-25" value="" style="rounded=1;whiteSpace=wrap;html=1;strokeWidth=2;fillWeight=4;hachureGap=8;hachureAngle=45;fillColor=#1ba1e2;sketch=1;" vertex="1" parent="1">
          <mxGeometry x="475" y="119" width="120" height="60" as="geometry" />
        </mxCell>
        <mxCell id="nKktrMvdwARESOhwwD5u-26" value="Application (API, Visualization, etc)" style="text;html=1;align=center;verticalAlign=middle;resizable=0;points=[];autosize=1;strokeColor=none;fillColor=none;" vertex="1" parent="1">
          <mxGeometry x="435" y="90" width="200" height="20" as="geometry" />
        </mxCell>
        <mxCell id="nKktrMvdwARESOhwwD5u-30" value="Rishad Harisdias Bustomi&lt;br&gt;2502101103&lt;br&gt;Draw.IO" style="text;html=1;align=left;verticalAlign=middle;resizable=0;points=[];autosize=1;strokeColor=none;fillColor=none;" vertex="1" parent="1">
          <mxGeometry x="115" y="20" width="150" height="50" as="geometry" />
        </mxCell>
      </root>
    </mxGraphModel>
  </diagram>
</mxfile>
